<svg width="74" height="60" viewBox="0 0 74 60" fill="none" xmlns="http://www.w3.org/2000/svg">
<path d="M73.2827 35.1184H73.2197L61.6493 8.64078C63.0489 8.74579 64.2102 8.84498 65.0823 8.92629L65.4191 5.29621C61.5467 4.93945 52.2027 4.25433 42.0919 4.06134C41.839 3.11667 41.3365 2.2678 40.6664 1.59956C39.6781 0.612891 38.2966 0 36.7837 0C35.2702 0 33.8855 0.612891 32.897 1.59956C32.2268 2.2678 31.7245 3.11667 31.4754 4.06134C21.3652 4.25433 12.0202 4.9396 8.1449 5.29621L8.48566 8.92857C9.35325 8.84739 10.518 8.75019 11.9141 8.64419H11.9145L0.346875 35.1184H0.282715C0.29127 35.1478 0.301393 35.1749 0.309947 35.202L0.286137 35.2572L0.333758 35.2775C2.12554 40.9304 7.43215 45.0312 13.705 45.0312C19.9773 45.0312 25.2828 40.9316 27.0751 35.2775L27.1229 35.2572L27.0995 35.202C27.1081 35.1747 27.1183 35.1478 27.1263 35.1184H27.0633L15.3887 8.40039C19.8893 8.1092 25.7108 7.81333 31.7687 7.69824C32.0438 8.31227 32.4277 8.86655 32.8972 9.33271C33.3764 9.81349 33.948 10.2042 34.5849 10.4817V48.9504C32.105 48.9504 30.1731 48.9504 30.1731 48.9504C30.1731 48.9504 29.1161 55.5266 24.3567 56.5787V60H49.2093V56.5787C44.45 55.5266 43.3924 48.9504 43.3924 48.9504C43.3924 48.9504 41.4604 48.9504 38.9807 48.9504V10.4817H38.9813C39.6157 10.2042 40.1875 9.81349 40.6665 9.33271C41.1395 8.86655 41.524 8.31227 41.7983 7.69824C47.8562 7.81333 53.6765 8.1092 58.1778 8.40039L46.5031 35.1184H46.4391C46.4477 35.1478 46.4578 35.1749 46.4663 35.202L46.4425 35.2572L46.4901 35.2775C48.2821 40.9304 53.5885 45.0312 59.8614 45.0312C66.1337 45.0312 71.439 40.9316 73.2315 35.2775L73.2792 35.2572L73.2559 35.202C73.2646 35.1749 73.2749 35.1478 73.2827 35.1184ZM24.6657 35.1184H2.74262L13.705 10.0326L24.6657 35.1184ZM38.8537 7.52881C38.806 7.57635 38.7584 7.62019 38.7074 7.65979C38.1935 8.11587 37.5268 8.3845 36.7839 8.3845C36.0399 8.3845 35.3736 8.11587 34.8563 7.65979C34.8054 7.62034 34.7578 7.57635 34.7102 7.52881C34.1794 7.00063 33.8533 6.27819 33.8533 5.46777C33.8533 4.9396 33.9922 4.44733 34.2371 4.02076C34.3693 3.79498 34.5268 3.5895 34.7102 3.40446C35.2449 2.87629 35.9702 2.55217 36.7839 2.55217C37.5971 2.55217 38.3223 2.87614 38.8537 3.40446C39.0403 3.5895 39.1978 3.79498 39.3267 4.02076C39.575 4.44733 39.7146 4.9396 39.7146 5.46777C39.7144 6.27819 39.3885 7.00063 38.8537 7.52881ZM48.8997 35.1184L59.8616 10.0326L70.823 35.1184H48.8997Z" fill="url(#paint0_linear_36_49)"/>
<defs>
<linearGradient id="paint0_linear_36_49" x1="0.282674" y1="30" x2="73.2827" y2="30" gradientUnits="userSpaceOnUse">
<stop stop-color="#E3C263"/>
<stop offset="0.3367" stop-color="#ECD58F"/>
<stop offset="1" stop-color="#C49B27"/>
</linearGradient>
</defs>
</svg>
