<svg width="60" height="60" viewBox="0 0 60 60" fill="none" xmlns="http://www.w3.org/2000/svg">
<path d="M29.9914 2.94181e-05C46.5599 -0.00476901 59.9952 13.4229 60 29.9914C60.0047 46.5599 46.577 59.9952 30.0084 60C13.4399 60.0047 0.0046797 46.577 1.23171e-06 30.0086C-0.00227802 22.0488 3.15881 14.4145 8.78737 8.7862C14.4037 3.15128 22.0355 -0.0111269 29.9914 2.94181e-05ZM15.7285 38.7521L25.4324 29.0237L15.7285 21.1113V38.7521ZM26.5013 29.8926L16.4947 39.9236H43.4L33.8426 29.8926L30.6893 32.5821C30.4339 32.7914 30.0663 32.7914 29.8107 32.5821L26.5013 29.8829V29.8926ZM34.8874 29.0043L44.2544 38.8302V21.0234L34.8874 29.0043ZM16.5973 20.057L30.216 31.1667L43.2732 20.057H16.5973ZM48.5206 11.4465C38.2787 1.20767 21.676 1.21019 11.4372 11.4521C1.19841 21.6939 1.20093 38.2968 11.4428 48.5355C21.6847 58.7741 38.2875 58.7716 48.5262 48.5297C53.441 43.6135 56.2025 36.9466 56.2036 29.995C56.2133 23.0361 53.4481 16.3604 48.5206 11.4465Z" fill="url(#paint0_linear_4_10)"/>
<defs>
<linearGradient id="paint0_linear_4_10" x1="2.52239e-05" y1="30" x2="60" y2="30" gradientUnits="userSpaceOnUse">
<stop stop-color="#E2BE5C"/>
<stop offset="0.3367" stop-color="#EBD18D"/>
<stop offset="0.9966" stop-color="#C1972C"/>
<stop offset="1" stop-color="#C1972C"/>
</linearGradient>
</defs>
</svg>
