<svg width="60" height="60" viewBox="0 0 60 60" fill="none" xmlns="http://www.w3.org/2000/svg">
<path d="M29.9978 16.5001C26.3318 16.5001 25.8706 16.5155 24.4318 16.5814C23.3123 16.6041 22.205 16.8166 21.1568 17.2098C20.2557 17.5468 19.4399 18.0779 18.767 18.7655C18.0803 19.4399 17.5481 20.2557 17.2074 21.1561C16.8141 22.2054 16.6026 23.314 16.5813 24.4344C16.5176 25.8735 16.5 26.3328 16.5 30C16.5 33.6673 16.5154 34.1244 16.5813 35.5657C16.604 36.6854 16.8164 37.7931 17.2095 38.8417C17.5481 39.7422 18.0788 40.5579 18.7647 41.2324C19.4384 41.92 20.254 42.4524 21.1545 42.7924C22.2037 43.1847 23.3119 43.3964 24.4318 43.4186C25.8705 43.4845 26.3296 43.5 29.9956 43.5C33.6617 43.5 34.1185 43.4845 35.5594 43.4186C36.6794 43.3965 37.7874 43.1847 38.8367 42.7924C40.6516 42.0882 42.0865 40.6529 42.7904 38.8373C43.1814 37.788 43.3938 36.6806 43.4187 35.5612C43.4823 34.1222 43.5 33.6628 43.5 29.9956C43.5 26.3284 43.4823 25.8691 43.4187 24.43C43.3938 23.3097 43.1814 22.2017 42.7904 21.1516C42.4514 20.2509 41.9199 19.435 41.2331 18.761C40.5605 18.0729 39.7446 17.5418 38.8432 17.2054C37.7911 16.8127 36.68 16.6016 35.5571 16.5813C34.1162 16.5154 33.6594 16.5 29.9933 16.5L29.9978 16.5001ZM28.6077 19.1101H29.8202C33.4225 19.1101 33.8486 19.1232 35.2719 19.1891C36.1278 19.1989 36.9756 19.3557 37.7783 19.6527C38.3644 19.8693 38.8943 20.2147 39.329 20.6635C39.7767 21.0991 40.122 21.6291 40.3394 22.2147C40.6363 23.0176 40.7931 23.8657 40.8028 24.7217C40.8688 26.1434 40.8819 26.5719 40.8819 30.1753C40.8819 33.7789 40.8687 34.2051 40.8028 35.6289C40.7933 36.4843 40.6366 37.3316 40.3394 38.1338C39.8848 39.3101 38.9546 40.2398 37.7782 40.6935C36.976 40.9928 36.1279 41.1505 35.2718 41.1594C33.8506 41.2253 33.4224 41.2384 29.8201 41.2384C26.2176 41.2384 25.7893 41.2252 24.3661 41.1594C23.5101 41.1489 22.6624 40.9913 21.8598 40.6935C21.2732 40.4779 20.7425 40.1333 20.3068 39.685C19.859 39.2499 19.5146 38.7197 19.2986 38.1338C19.0009 37.3309 18.8433 36.4829 18.8329 35.6267C18.7692 34.2028 18.756 33.7765 18.756 30.1708C18.756 26.5652 18.7692 26.141 18.8329 24.7172C18.8422 23.8609 18.9997 23.0125 19.2986 22.2101C19.5145 21.6241 19.8589 21.094 20.3068 20.6589C20.7429 20.2105 21.2733 19.8652 21.8598 19.6482C22.6626 19.3514 23.5103 19.1937 24.3661 19.1823C25.6115 19.1275 26.0926 19.1099 28.6076 19.1077V19.1101H28.6077ZM37.0228 21.3513C36.1275 21.3513 35.4017 22.0773 35.4017 22.9729C35.4017 23.8684 36.1275 24.5945 37.0228 24.5945C37.918 24.5945 38.6439 23.8684 38.6439 22.9729C38.6439 22.9721 38.6439 22.9713 38.6439 22.9708C38.6439 22.0763 37.9189 21.3514 37.025 21.3514C37.0243 21.3513 37.0235 21.3513 37.0228 21.3513ZM29.8203 23.2453C25.9928 23.2453 22.8902 26.349 22.8902 30.1776C22.8902 34.0063 25.9928 37.11 29.8203 37.11C33.6476 37.11 36.7505 34.0063 36.7505 30.1776C36.7492 26.3494 33.6473 23.2465 29.8203 23.2453ZM29.8203 25.6776C32.3048 25.674 34.3218 27.6857 34.3254 30.171C34.3291 32.6563 32.3179 34.6739 29.8334 34.6776C27.349 34.6812 25.332 32.6694 25.3283 30.1842C25.3283 30.182 25.3283 30.1798 25.3283 30.1776C25.3331 27.6984 27.3418 25.6901 29.8202 25.6865L29.8203 25.6776Z" fill="url(#paint0_linear_4_15)"/>
<path d="M30 2.5C45.1878 2.5 57.5 14.8122 57.5 30C57.5 45.1878 45.1878 57.5 30 57.5C14.8122 57.5 2.5 45.1878 2.5 30C2.5 14.8122 14.8122 2.5 30 2.5Z" stroke="url(#paint1_linear_4_15)" stroke-width="5"/>
<defs>
<linearGradient id="paint0_linear_4_15" x1="16.5" y1="30.0001" x2="43.5" y2="30.0001" gradientUnits="userSpaceOnUse">
<stop stop-color="#E2BE5C"/>
<stop offset="0.3367" stop-color="#EBD18D"/>
<stop offset="0.9966" stop-color="#C1972C"/>
<stop offset="1" stop-color="#C1972C"/>
</linearGradient>
<linearGradient id="paint1_linear_4_15" x1="30" y1="0" x2="30" y2="60" gradientUnits="userSpaceOnUse">
<stop stop-color="#E2BE5C"/>
<stop offset="0.34" stop-color="#EBD18D"/>
<stop offset="1" stop-color="#C1972C"/>
<stop offset="1" stop-color="#C1972C"/>
</linearGradient>
</defs>
</svg>
