<svg width="60" height="60" viewBox="0 0 60 60" fill="none" xmlns="http://www.w3.org/2000/svg">
<circle cx="30" cy="30" r="27.5" stroke="url(#paint0_linear_4_14)" stroke-width="5"/>
<path d="M37.9014 22.9727C37.9014 23.457 37.5086 23.8506 37.0225 23.8506C36.9383 23.8503 36.8573 23.8377 36.7803 23.8154C36.5888 23.606 36.3881 23.4053 36.1787 23.2139C36.1645 23.1643 36.1538 23.1132 36.1484 23.0605L36.1436 22.9727V22.9707C36.1447 22.4873 36.5371 22.0949 37.0225 22.0947H37.0254C37.0628 22.0948 37.0996 22.0969 37.1357 22.1016C37.282 22.1818 37.4167 22.282 37.5332 22.4023L37.5586 22.4297L37.5859 22.4551C37.7101 22.5758 37.8125 22.7158 37.8945 22.8672C37.8987 22.9018 37.9014 22.9369 37.9014 22.9727Z" fill="url(#paint1_linear_4_14)" stroke="url(#paint2_linear_4_14)" stroke-width="5"/>
<defs>
<linearGradient id="paint0_linear_4_14" x1="30" y1="0" x2="30" y2="60" gradientUnits="userSpaceOnUse">
<stop stop-color="#E2BE5C"/>
<stop offset="0.34" stop-color="#EBD18D"/>
<stop offset="1" stop-color="#C1972C"/>
<stop offset="1" stop-color="#C1972C"/>
</linearGradient>
<linearGradient id="paint1_linear_4_14" x1="16.5" y1="30.0001" x2="43.5" y2="30.0001" gradientUnits="userSpaceOnUse">
<stop stop-color="#E2BE5C"/>
<stop offset="0.3367" stop-color="#EBD18D"/>
<stop offset="0.9966" stop-color="#C1972C"/>
<stop offset="1" stop-color="#C1972C"/>
</linearGradient>
<linearGradient id="paint2_linear_4_14" x1="30" y1="16.5" x2="30" y2="43.5" gradientUnits="userSpaceOnUse">
<stop stop-color="#E2BE5C"/>
<stop offset="0.34" stop-color="#EBD18D"/>
<stop offset="1" stop-color="#C1972C"/>
<stop offset="1" stop-color="#C1972C"/>
</linearGradient>
</defs>
</svg>
