<svg width="40" height="60" viewBox="0 0 40 60" fill="none" xmlns="http://www.w3.org/2000/svg">
<path d="M18.1605 46.5C18.5471 47.0977 19.2267 47.4961 20 47.4961C20.7732 47.4961 21.4528 47.0976 21.8512 46.5L34.7628 26.5547C36.4968 23.8711 37.5045 20.918 37.5045 17.4961C37.4926 7.60545 29.7247 0 20 0C10.2753 0 2.50729 7.60545 2.50729 17.4961C2.50729 20.918 3.51494 23.8711 5.24898 26.5547L18.1605 46.5ZM20 7.5C25.5184 7.5 29.9941 11.9766 29.9941 17.4961C29.9941 23.0156 25.5184 27.4922 20 27.4922C14.4815 27.4922 10.0058 23.0156 10.0058 17.4962C10.0058 11.9767 14.4815 7.5 20 7.5ZM32.8178 37.9102L20 54.9961L7.18218 37.9102C2.80018 40.2071 4.71109e-10 43.6406 4.71109e-10 47.4962C-7.4985e-05 54.3985 8.95131 60 20 60C31.0486 60 40 54.3984 40 47.4961C40 43.6406 37.1997 40.2071 32.8178 37.9102Z" fill="url(#paint0_linear_4_21)"/>
<defs>
<linearGradient id="paint0_linear_4_21" x1="-5.24893e-05" y1="30" x2="40" y2="30" gradientUnits="userSpaceOnUse">
<stop stop-color="#E3C263"/>
<stop offset="0.3367" stop-color="#ECD58F"/>
<stop offset="0.9966" stop-color="#C49B27"/>
<stop offset="1" stop-color="#C49B27"/>
</linearGradient>
</defs>
</svg>
