<svg width="78" height="60" viewBox="0 0 78 60" fill="none" xmlns="http://www.w3.org/2000/svg">
<path d="M3.5913 0.000352963C3.12209 -0.00626125 2.65625 0.0801423 2.22083 0.254542C1.78542 0.428941 1.38912 0.687858 1.05497 1.01625C0.720818 1.34463 0.455479 1.73595 0.274371 2.16744C0.093264 2.59893 0 3.06199 0 3.52972C0 3.99745 0.093264 4.46052 0.274371 4.89201C0.455479 5.3235 0.720818 5.71481 1.05497 6.0432C1.38912 6.37159 1.78542 6.63051 2.22083 6.80491C2.65625 6.9793 3.12209 7.06571 3.5913 7.05909H74.4087C74.8779 7.06571 75.3438 6.9793 75.7792 6.80491C76.2146 6.63051 76.6109 6.37159 76.945 6.0432C77.2792 5.71481 77.5445 5.3235 77.7256 4.89201C77.9067 4.46052 78 3.99745 78 3.52972C78 3.06199 77.9067 2.59893 77.7256 2.16744C77.5445 1.73595 77.2792 1.34463 76.945 1.01625C76.6109 0.687858 76.2146 0.428941 75.7792 0.254542C75.3438 0.0801423 74.8779 -0.00626125 74.4087 0.000352963H3.5913ZM3.5913 26.4706C3.12209 26.464 2.65625 26.5504 2.22083 26.7248C1.78542 26.8992 1.38912 27.1581 1.05497 27.4865C0.720818 27.8149 0.455479 28.2062 0.274371 28.6377C0.093264 29.0692 0 29.5323 0 30C0 30.4677 0.093264 30.9308 0.274371 31.3623C0.455479 31.7938 0.720818 32.1851 1.05497 32.5135C1.38912 32.8419 1.78542 33.1008 2.22083 33.2752C2.65625 33.4496 3.12209 33.536 3.5913 33.5294H74.4087C74.8779 33.536 75.3438 33.4496 75.7792 33.2752C76.2146 33.1008 76.6109 32.8419 76.945 32.5135C77.2792 32.1851 77.5445 31.7938 77.7256 31.3623C77.9067 30.9308 78 30.4677 78 30C78 29.5323 77.9067 29.0692 77.7256 28.6377C77.5445 28.2062 77.2792 27.8149 76.945 27.4865C76.6109 27.1581 76.2146 26.8992 75.7792 26.7248C75.3438 26.5504 74.8779 26.464 74.4087 26.4706H3.5913ZM3.5913 52.9409C3.12209 52.9343 2.65625 53.0207 2.22083 53.1951C1.78542 53.3695 1.38912 53.6284 1.05497 53.9568C0.720818 54.2852 0.455479 54.6765 0.274371 55.108C0.093264 55.5395 0 56.0025 0 56.4703C0 56.938 0.093264 57.4011 0.274371 57.8326C0.455479 58.2641 0.720818 58.6554 1.05497 58.9838C1.38912 59.3121 1.78542 59.5711 2.22083 59.7455C2.65625 59.9199 3.12209 60.0063 3.5913 59.9996H74.4087C74.8779 60.0063 75.3438 59.9199 75.7792 59.7455C76.2146 59.5711 76.6109 59.3121 76.945 58.9838C77.2792 58.6554 77.5445 58.2641 77.7256 57.8326C77.9067 57.4011 78 56.938 78 56.4703C78 56.0025 77.9067 55.5395 77.7256 55.108C77.5445 54.6765 77.2792 54.2852 76.945 53.9568C76.6109 53.6284 76.2146 53.3695 75.7792 53.1951C75.3438 53.0207 74.8779 52.9343 74.4087 52.9409H3.5913Z" fill="#E3C263"/>
</svg>
