<svg width="60" height="60" viewBox="0 0 60 60" fill="none" xmlns="http://www.w3.org/2000/svg">
<path d="M29.9914 2.94181e-05C46.5599 -0.00476902 59.9952 13.4229 60 29.9914C60.0047 46.56 46.577 59.9952 30.0085 60C13.4399 60.0047 0.00467971 46.577 1.23171e-06 30.0086C-0.00227803 22.0488 3.15881 14.4145 8.78738 8.7862C14.4037 3.15128 22.0355 -0.0111269 29.9914 2.94181e-05ZM24.0559 34.8275C24.1829 33.7634 21.0149 29.6827 20.4389 27.7302C19.1991 25.7777 18.7597 22.6244 20.107 20.5401C20.6489 19.7151 20.4145 18.9976 20.4145 17.8506C20.4145 6.50658 40.2809 6.50658 40.2809 17.8506C40.2809 19.2857 39.9539 19.6225 40.7301 20.7793C42.0284 22.6635 41.3598 26.012 40.242 27.7594C39.5391 29.7754 36.2393 33.6804 36.4688 34.8371C36.6738 40.6556 24.0217 40.4652 24.0558 34.8371L24.0559 34.8275ZM8.92401 44.6241C10.5105 42.867 13.361 42.7887 16.817 41.0316C18.1212 40.3709 19.3844 39.6326 20.5999 38.8203C24.6123 43.7406 27.9217 49.1491 26.8381 55.4409C27.8809 55.5702 28.9308 55.6354 29.9817 55.6362C30.2501 55.6362 30.5137 55.6362 30.7822 55.6362C30.5382 48.246 34.8727 42.8425 39.4659 38.2444C41.8172 39.8027 44.356 41.0573 47.022 41.9785C49.2772 42.7303 50.6293 43.2135 51.4151 44.0775C59.2109 32.2521 55.9442 16.346 44.1189 8.55012C32.2935 0.754223 16.3874 4.02099 8.59148 15.8464C2.81836 24.6035 2.95979 35.9934 8.94848 44.6046L8.92401 44.6241Z" fill="url(#paint0_linear_4_24)"/>
<defs>
<linearGradient id="paint0_linear_4_24" x1="2.52239e-05" y1="30" x2="60" y2="30" gradientUnits="userSpaceOnUse">
<stop stop-color="#E2BE5C"/>
<stop offset="0.3367" stop-color="#EBD18D"/>
<stop offset="0.9966" stop-color="#C1972C"/>
<stop offset="1" stop-color="#C1972C"/>
</linearGradient>
</defs>
</svg>
