<svg width="61" height="60" viewBox="0 0 61 60" fill="none" xmlns="http://www.w3.org/2000/svg">
<path d="M27.8921 33.1875C27.3296 33.1875 26.8608 32.7187 26.8608 32.1562C26.8608 31.5937 27.3296 31.125 27.8921 31.125H32.6733C33.2358 31.125 33.7046 31.5937 33.7046 32.1562C33.7046 32.7187 33.2358 33.1875 32.6733 33.1875H27.8921ZM11.2046 21.1875C10.3608 21.1875 9.61084 20.4375 9.61084 19.5938C9.61084 18.75 10.3608 18 11.2046 18H12.6577C13.1733 18 13.5952 17.625 13.5952 17.1094C14.0171 11.2969 17.5327 6 22.7827 3.375C23.0171 3.23437 23.2983 3.1875 23.4858 3.1875C24.3296 3.1875 25.0796 3.9375 25.0796 4.78125V8.0625C25.0796 8.57813 25.5015 9 26.0171 9C26.5327 9 26.9546 8.57813 26.9546 8.0625V3.23438C26.9546 2.4375 27.564 1.73438 28.314 1.64063C28.9233 1.54688 29.5796 1.54688 30.189 1.54688C30.8921 1.54688 31.6421 1.59375 32.2515 1.64063C33.0483 1.73438 33.6108 2.39063 33.6108 3.23438V8.01562C33.6108 8.53125 34.0327 8.95312 34.5483 8.95312C35.064 8.95312 35.4858 8.53125 35.4858 8.01562V4.78125C35.4858 3.9375 36.2358 3.1875 37.0796 3.1875C37.2671 3.1875 37.5483 3.23437 37.8296 3.375C43.1733 6.14062 46.5952 11.25 47.0171 17.1094C47.064 17.625 47.439 18 47.9546 18H49.4077C50.2515 18 51.0015 18.75 51.0015 19.5938C51.0015 20.4375 50.2515 21.1875 49.4077 21.1875H11.2046ZM44.439 18.375C44.2983 18 44.2515 17.6719 44.2046 17.2969C43.9233 13.2188 41.7671 9.42187 38.439 6.98437V8.01562C38.439 10.0781 36.7515 11.7656 34.689 11.7656C32.6265 11.7656 30.939 10.0781 30.939 8.01562V4.35938H29.814V7.96875C29.814 10.0312 28.1265 11.7188 26.064 11.7188C24.0015 11.7188 22.314 10.0312 22.314 7.96875V6.89062C18.8452 9.32812 16.689 13.1719 16.3608 17.2969C16.314 17.6719 16.2671 18 16.1265 18.375H44.439Z" fill="url(#paint0_linear_30_171)"/>
<path d="M5.1578 59.9063C3.93905 59.9063 2.81406 59.3906 2.06406 58.5C1.40781 57.7031 1.12656 56.6719 1.36093 55.6875C3.23593 46.0781 12.0016 38.2031 23.3922 35.9531C19.0328 33.1406 16.3609 27.9844 16.3609 22.2188V21.8906H44.2984V22.2188C44.2984 27.9375 41.6266 33.1406 37.2203 35.9531C48.6109 38.25 57.3766 46.125 59.2516 55.6875C59.4391 56.6719 59.2047 57.7031 58.5484 58.5C57.7984 59.3906 56.6734 59.9063 55.4547 59.9063H5.1578ZM30.2828 38.0625C23.8609 38.0625 17.6734 39.9375 12.8453 43.4062C8.20468 46.7344 5.11093 51.2812 4.12655 56.2031C4.07968 56.4375 4.17343 56.625 4.26718 56.6719C4.50155 56.9531 4.7828 57.0938 5.1578 57.0938H55.5016C55.8766 57.0938 56.2047 56.9531 56.3922 56.7188C56.4391 56.6719 56.5797 56.4844 56.4859 56.25C55.5484 51.2813 52.4547 46.7344 47.7672 43.4062C42.8922 39.9375 36.7047 38.0625 30.2828 38.0625ZM19.3141 24.7031C20.3453 30.7969 24.8922 35.2031 30.2359 35.2031C35.5797 35.2031 40.1266 30.7969 41.1578 24.7031H19.3141Z" fill="url(#paint1_linear_30_171)"/>
<defs>
<linearGradient id="paint0_linear_30_171" x1="9.61082" y1="17.3672" x2="51.0015" y2="17.3672" gradientUnits="userSpaceOnUse">
<stop stop-color="#E3C263"/>
<stop offset="0.3367" stop-color="#ECD58F"/>
<stop offset="1" stop-color="#C49B27"/>
</linearGradient>
<linearGradient id="paint1_linear_30_171" x1="1.27926" y1="40.8984" x2="59.3141" y2="40.8984" gradientUnits="userSpaceOnUse">
<stop stop-color="#E3C263"/>
<stop offset="0.3367" stop-color="#ECD58F"/>
<stop offset="1" stop-color="#C49B27"/>
</linearGradient>
</defs>
</svg>
