<svg width="20" height="20" viewBox="0 0 20 20" fill="none" xmlns="http://www.w3.org/2000/svg">
<path d="M2.32559 9.99999C2.32559 5.52914 5.86567 1.90477 10.2326 1.90477C14.5994 1.90477 18.1395 5.52914 18.1395 9.99999C18.1395 14.4708 14.5994 18.0952 10.2326 18.0952C8.67702 18.0952 7.22907 17.6363 6.00741 16.8439C5.78005 16.6965 5.50146 16.657 5.24357 16.7358L2.56528 17.5542L3.5737 15.1384C3.69289 14.8528 3.66864 14.5258 3.50871 14.262C2.75879 13.0247 2.32559 11.5656 2.32559 9.99999ZM10.2326 0C4.83817 0 0.465114 4.47714 0.465114 9.99999C0.465114 11.7506 0.905235 13.3984 1.67873 14.8311L0.0748632 18.6733C-0.0669322 19.013 -0.0040857 19.406 0.23611 19.6816C0.476305 19.9573 0.850538 20.0659 1.19628 19.9601L5.38177 18.6814C6.81158 19.5205 8.46856 20 10.2326 20C15.627 20 20 15.5228 20 9.99999C20 4.47714 15.627 0 10.2326 0ZM12.3651 12.0785L11.1426 12.9601C10.57 12.6262 9.93702 12.1601 9.30203 11.51C8.64194 10.8342 8.15257 10.1364 7.7917 9.49645L8.5686 8.8213C8.90201 8.53156 8.99326 8.04313 8.78787 7.64785L7.79795 5.74308C7.66467 5.48659 7.42431 5.30642 7.14521 5.25379C6.86611 5.20116 6.57886 5.28185 6.36504 5.47288L6.07154 5.73511C5.36575 6.36576 4.94831 7.4021 5.29428 8.45145C5.65297 9.53925 6.4184 11.2513 7.98646 12.8568C9.67352 14.584 11.3872 15.2642 12.3893 15.5284C13.1968 15.7412 13.9609 15.4559 14.4993 15.0068L15.0495 14.5477C15.2849 14.3515 15.4118 14.0498 15.3897 13.7398C15.3674 13.4298 15.1989 13.1504 14.938 12.9913L13.3768 12.0389C13.0616 11.8467 12.6653 11.8621 12.3651 12.0785Z" fill="url(#paint0_linear_28_43)"/>
<defs>
<linearGradient id="paint0_linear_28_43" x1="0" y1="10" x2="20" y2="10" gradientUnits="userSpaceOnUse">
<stop stop-color="#1D2232"/>
<stop offset="1" stop-color="#121212"/>
</linearGradient>
</defs>
</svg>
