<svg width="62" height="60" viewBox="0 0 62 60" fill="none" xmlns="http://www.w3.org/2000/svg">
<path d="M7.20933 30C7.20933 16.5874 18.1836 5.71431 31.7209 5.71431C45.2582 5.71431 56.2325 16.5874 56.2325 30C56.2325 43.4125 45.2582 54.2856 31.7209 54.2856C26.8988 54.2856 22.4101 52.909 18.623 50.5317C17.9182 50.0894 17.0545 49.9711 16.2551 50.2073L7.95237 52.6625L11.0785 45.4151C11.448 44.5585 11.3728 43.5774 10.877 42.7859C8.55225 39.0742 7.20933 34.6968 7.20933 30ZM31.7209 0C14.9983 0 1.44185 13.4314 1.44185 30C1.44185 35.2517 2.80623 40.1951 5.20407 44.4934L0.232076 56.0199C-0.20749 57.0391 -0.0126657 58.2179 0.73194 59.0447C1.47655 59.8719 2.63667 60.1976 3.70846 59.8804L16.6835 56.0441C21.1159 58.5614 26.2525 59.9999 31.7209 59.9999C48.4436 59.9999 62 46.5685 62 30C62 13.4314 48.4436 0 31.7209 0ZM38.3319 36.2354L34.5421 38.8802C32.7671 37.8785 30.8048 36.4802 28.8363 34.5299C26.79 32.5025 25.273 30.4093 24.1543 28.4893L26.5627 26.4639C27.5962 25.5947 27.8791 24.1294 27.2424 22.9435L24.1737 17.2292C23.7605 16.4598 23.0153 15.9193 22.1501 15.7614C21.2849 15.6035 20.3945 15.8456 19.7316 16.4186L18.8218 17.2053C16.6338 19.0973 15.3398 22.2063 16.4123 25.3543C17.5242 28.6177 19.897 33.754 24.758 38.5704C29.9879 43.752 35.3003 45.7926 38.407 46.5852C40.91 47.2235 43.2787 46.3678 44.9478 45.0203L46.6535 43.6432C47.3831 43.0544 47.7767 42.1495 47.708 41.2195C47.6391 40.2895 47.1165 39.4512 46.3079 38.9738L41.4682 36.1167C40.4909 35.54 39.2624 35.5862 38.3319 36.2354Z" fill="url(#paint0_linear_7_16)"/>
<defs>
<linearGradient id="paint0_linear_7_16" x1="-3.49374e-05" y1="30" x2="62" y2="30" gradientUnits="userSpaceOnUse">
<stop stop-color="#E3C263"/>
<stop offset="0.3367" stop-color="#ECD58F"/>
<stop offset="0.9966" stop-color="#C49B27"/>
<stop offset="1" stop-color="#C49B27"/>
</linearGradient>
</defs>
</svg>
